<svg xmlns="http://www.w3.org/2000/svg" xmlns:xlink="http://www.w3.org/1999/xlink" xmlns:lucid="lucid" width="2663.51" height="1724"><g transform="translate(1281 161)" lucid:page-tab-id="0_0"><path d="M-321.5 925.8a6 6 0 0 1 6-6H254a6 6 0 0 1 6 6v287a6 6 0 0 1-6 6h-569.5a6 6 0 0 1-6-6z" fill="#edf5ff"/><path d="M-321.5 925.8a6 6 0 0 1 6-6H254a6 6 0 0 1 6 6v287a6 6 0 0 1-6 6h-569.5a6 6 0 0 1-6-6zM-321.5 959.8H260M-172.18 959.8v259M115.82 959.8v259" stroke="#000" stroke-width="2" fill="none"/><use xlink:href="#a" transform="matrix(1,0,0,1,-311.51475694444446,919.8142921103122) translate(256.20616319444446 28.08376736111111)"/><use xlink:href="#b" transform="matrix(1,0,0,1,-316.51475694444446,962.3142921103122) translate(9.990234374999993 24.08376736111111)"/><use xlink:href="#c" transform="matrix(1,0,0,1,-167.1814236111112,962.3142921103122) translate(0 24.08376736111111)"/><use xlink:href="#d" transform="matrix(1,0,0,1,120.81857638888891,962.3142921103122) translate(0 24.08376736111111)"/><use xlink:href="#e" transform="matrix(1,0,0,1,-167.1814236111112,999.3142921103122) translate(0 24.08376736111111)"/><use xlink:href="#f" transform="matrix(1,0,0,1,120.81857638888891,999.3142921103122) translate(0 24.08376736111111)"/><use xlink:href="#g" transform="matrix(1,0,0,1,-167.1814236111112,1036.3142921103122) translate(0 24.08376736111111)"/><use xlink:href="#f" transform="matrix(1,0,0,1,120.81857638888891,1036.3142921103122) translate(0 24.08376736111111)"/><use xlink:href="#h" transform="matrix(1,0,0,1,-167.1814236111112,1073.3142921103122) translate(0 24.08376736111111)"/><use xlink:href="#i" transform="matrix(1,0,0,1,120.81857638888891,1073.3142921103122) translate(0 24.08376736111111)"/><use xlink:href="#j" transform="matrix(1,0,0,1,-167.1814236111112,1110.3142921103122) translate(0 24.08376736111111)"/><use xlink:href="#f" transform="matrix(1,0,0,1,120.81857638888891,1110.3142921103122) translate(0 24.08376736111111)"/><use xlink:href="#k" transform="matrix(1,0,0,1,-167.1814236111112,1147.3142921103122) translate(0 24.08376736111111)"/><use xlink:href="#l" transform="matrix(1,0,0,1,120.81857638888891,1147.3142921103122) translate(0 24.08376736111111)"/><use xlink:href="#m" transform="matrix(1,0,0,1,-167.1814236111112,1184.3142921103122) translate(0 24.08376736111111)"/><use xlink:href="#l" transform="matrix(1,0,0,1,120.81857638888891,1184.3142921103122) translate(0 24.08376736111111)"/><path d="M-731 1306a6 6 0 0 1 6-6h569.5a6 6 0 0 1 6 6v213a6 6 0 0 1-6 6H-725a6 6 0 0 1-6-6z" fill="#fff3d9"/><path d="M-731 1306a6 6 0 0 1 6-6h569.5a6 6 0 0 1 6 6v213a6 6 0 0 1-6 6H-725a6 6 0 0 1-6-6zM-731 1340h581.5M-579 1340v185M-287 1340v185" stroke="#000" stroke-width="2" fill="none"/><use xlink:href="#n" transform="matrix(1,0,0,1,-721,1300) translate(215.35872395833334 28.08376736111111)"/><use xlink:href="#b" transform="matrix(1,0,0,1,-726,1342.5) translate(10.990234374999993 24.08376736111111)"/><use xlink:href="#c" transform="matrix(1,0,0,1,-574,1342.5) translate(0 24.08376736111111)"/><use xlink:href="#d" transform="matrix(1,0,0,1,-282,1342.5) translate(0 24.08376736111111)"/><use xlink:href="#o" transform="matrix(1,0,0,1,-726,1379.5) translate(14.473307291666664 24.08376736111111)"/><use xlink:href="#p" transform="matrix(1,0,0,1,-574,1379.5) translate(0 24.08376736111111)"/><use xlink:href="#d" transform="matrix(1,0,0,1,-282,1379.5) translate(0 24.08376736111111)"/><use xlink:href="#q" transform="matrix(1,0,0,1,-574,1416.5) translate(0 24.08376736111111)"/><use xlink:href="#f" transform="matrix(1,0,0,1,-282,1416.5) translate(0 24.08376736111111)"/><use xlink:href="#k" transform="matrix(1,0,0,1,-574,1453.5) translate(0 24.08376736111111)"/><use xlink:href="#l" transform="matrix(1,0,0,1,-282,1453.5) translate(0 24.08376736111111)"/><use xlink:href="#m" transform="matrix(1,0,0,1,-574,1490.5) translate(0 24.08376736111111)"/><use xlink:href="#l" transform="matrix(1,0,0,1,-282,1490.5) translate(0 24.08376736111111)"/><path d="M80 306a6 6 0 0 1 6-6h569.5a6 6 0 0 1 6 6v361a6 6 0 0 1-6 6H86a6 6 0 0 1-6-6z" fill="#edf5ff"/><path d="M80 306a6 6 0 0 1 6-6h569.5a6 6 0 0 1 6 6v361a6 6 0 0 1-6 6H86a6 6 0 0 1-6-6zM80 340h581.5M232 340v333M524 340v333" stroke="#000" stroke-width="2" fill="none"/><use xlink:href="#r" transform="matrix(1,0,0,1,90,300) translate(248.27430555555554 28.08376736111111)"/><use xlink:href="#b" transform="matrix(1,0,0,1,85,342.5) translate(10.990234374999993 24.08376736111111)"/><use xlink:href="#c" transform="matrix(1,0,0,1,237,342.5) translate(0 24.08376736111111)"/><use xlink:href="#d" transform="matrix(1,0,0,1,529,342.5) translate(0 24.08376736111111)"/><use xlink:href="#o" transform="matrix(1,0,0,1,85,379.5) translate(14.473307291666664 24.08376736111111)"/><use xlink:href="#p" transform="matrix(1,0,0,1,237,379.5) translate(0 24.08376736111111)"/><use xlink:href="#d" transform="matrix(1,0,0,1,529,379.5) translate(0 24.08376736111111)"/><use xlink:href="#s" transform="matrix(1,0,0,1,237,416.5) translate(0 24.08376736111111)"/><use xlink:href="#f" transform="matrix(1,0,0,1,529,416.5) translate(0 24.08376736111111)"/><use xlink:href="#t" transform="matrix(1,0,0,1,237,453.5) translate(0 24.08376736111111)"/><use xlink:href="#f" transform="matrix(1,0,0,1,529,453.5) translate(0 24.08376736111111)"/><use xlink:href="#u" transform="matrix(1,0,0,1,237,490.5) translate(0 24.08376736111111)"/><use xlink:href="#v" transform="matrix(1,0,0,1,529,490.5) translate(0 24.08376736111111)"/><use xlink:href="#w" transform="matrix(1,0,0,1,237,527.5) translate(0 24.08376736111111)"/><use xlink:href="#f" transform="matrix(1,0,0,1,529,527.5) translate(0 24.08376736111111)"/><use xlink:href="#x" transform="matrix(1,0,0,1,237,564.5) translate(0 24.08376736111111)"/><use xlink:href="#i" transform="matrix(1,0,0,1,529,564.5) translate(0 24.08376736111111)"/><use xlink:href="#k" transform="matrix(1,0,0,1,237,601.5) translate(0 24.08376736111111)"/><use xlink:href="#l" transform="matrix(1,0,0,1,529,601.5) translate(0 24.08376736111111)"/><use xlink:href="#m" transform="matrix(1,0,0,1,237,638.5) translate(0 24.08376736111111)"/><use xlink:href="#l" transform="matrix(1,0,0,1,529,638.5) translate(0 24.08376736111111)"/><path d="M-1280 549a6 6 0 0 1 6-6h569.5a6 6 0 0 1 6 6v250a6 6 0 0 1-6 6H-1274a6 6 0 0 1-6-6z" fill="#e3fae3"/><path d="M-1280 549a6 6 0 0 1 6-6h569.5a6 6 0 0 1 6 6v250a6 6 0 0 1-6 6H-1274a6 6 0 0 1-6-6zM-1280 583h581.5M-1130.67 583v222M-842.67 583v222" stroke="#000" stroke-width="2" fill="none"/><use xlink:href="#y" transform="matrix(1,0,0,1,-1270,543) translate(230.07769097222223 28.08376736111111)"/><use xlink:href="#b" transform="matrix(1,0,0,1,-1275,585.5) translate(9.990234374999993 24.08376736111111)"/><use xlink:href="#c" transform="matrix(1,0,0,1,-1125.6666666666667,585.5) translate(0 24.08376736111111)"/><use xlink:href="#d" transform="matrix(1,0,0,1,-837.6666666666666,585.5) translate(0 24.08376736111111)"/><use xlink:href="#o" transform="matrix(1,0,0,1,-1275,622.5) translate(13.473307291666664 24.08376736111111)"/><use xlink:href="#p" transform="matrix(1,0,0,1,-1125.6666666666667,622.5) translate(0 24.08376736111111)"/><use xlink:href="#d" transform="matrix(1,0,0,1,-837.6666666666666,622.5) translate(0 24.08376736111111)"/><use xlink:href="#o" transform="matrix(1,0,0,1,-1275,659.5) translate(13.473307291666664 24.08376736111111)"/><use xlink:href="#z" transform="matrix(1,0,0,1,-1125.6666666666667,659.5) translate(0 24.08376736111111)"/><use xlink:href="#d" transform="matrix(1,0,0,1,-837.6666666666666,659.5) translate(0 24.08376736111111)"/><use xlink:href="#A" transform="matrix(1,0,0,1,-1125.6666666666667,696.5) translate(0 24.08376736111111)"/><use xlink:href="#f" transform="matrix(1,0,0,1,-837.6666666666666,696.5) translate(0 24.08376736111111)"/><use xlink:href="#k" transform="matrix(1,0,0,1,-1125.6666666666667,733.5) translate(0 24.08376736111111)"/><use xlink:href="#l" transform="matrix(1,0,0,1,-837.6666666666666,733.5) translate(0 24.08376736111111)"/><use xlink:href="#m" transform="matrix(1,0,0,1,-1125.6666666666667,770.5) translate(0 24.08376736111111)"/><use xlink:href="#l" transform="matrix(1,0,0,1,-837.6666666666666,770.5) translate(0 24.08376736111111)"/><path d="M-1280 184a6 6 0 0 1 6-6h569.5a6 6 0 0 1 6 6v250a6 6 0 0 1-6 6H-1274a6 6 0 0 1-6-6z" fill="#e3fae3"/><path d="M-1280 184a6 6 0 0 1 6-6h569.5a6 6 0 0 1 6 6v250a6 6 0 0 1-6 6H-1274a6 6 0 0 1-6-6zM-1280 218h581.5M-1130.67 218v222M-842.67 218v222" stroke="#000" stroke-width="2" fill="none"/><use xlink:href="#B" transform="matrix(1,0,0,1,-1270,178) translate(247.95963541666669 28.08376736111111)"/><use xlink:href="#b" transform="matrix(1,0,0,1,-1275,220.5) translate(9.990234374999993 24.08376736111111)"/><use xlink:href="#c" transform="matrix(1,0,0,1,-1125.6666666666667,220.5) translate(0 24.08376736111111)"/><use xlink:href="#d" transform="matrix(1,0,0,1,-837.6666666666666,220.5) translate(0 24.08376736111111)"/><use xlink:href="#o" transform="matrix(1,0,0,1,-1275,257.5) translate(13.473307291666664 24.08376736111111)"/><use xlink:href="#p" transform="matrix(1,0,0,1,-1125.6666666666667,257.5) translate(0 24.08376736111111)"/><use xlink:href="#d" transform="matrix(1,0,0,1,-837.6666666666666,257.5) translate(0 24.08376736111111)"/><use xlink:href="#o" transform="matrix(1,0,0,1,-1275,294.5) translate(13.473307291666664 24.08376736111111)"/><use xlink:href="#z" transform="matrix(1,0,0,1,-1125.6666666666667,294.5) translate(0 24.08376736111111)"/><use xlink:href="#d" transform="matrix(1,0,0,1,-837.6666666666666,294.5) translate(0 24.08376736111111)"/><use xlink:href="#C" transform="matrix(1,0,0,1,-1125.6666666666667,331.5) translate(0 24.08376736111111)"/><use xlink:href="#v" transform="matrix(1,0,0,1,-837.6666666666666,331.5) translate(0 24.08376736111111)"/><use xlink:href="#k" transform="matrix(1,0,0,1,-1125.6666666666667,368.5) translate(0 24.08376736111111)"/><use xlink:href="#l" transform="matrix(1,0,0,1,-837.6666666666666,368.5) translate(0 24.08376736111111)"/><use xlink:href="#m" transform="matrix(1,0,0,1,-1125.6666666666667,405.5) translate(0 24.08376736111111)"/><use xlink:href="#l" transform="matrix(1,0,0,1,-837.6666666666666,405.5) translate(0 24.08376736111111)"/><path d="M-1280 926a6 6 0 0 1 6-6h569.5a6 6 0 0 1 6 6v213a6 6 0 0 1-6 6H-1274a6 6 0 0 1-6-6z" fill="#e3fae3"/><path d="M-1280 926a6 6 0 0 1 6-6h569.5a6 6 0 0 1 6 6v213a6 6 0 0 1-6 6H-1274a6 6 0 0 1-6-6zM-1280 960h581.5M-1130.67 960v185M-842.67 960v185" stroke="#000" stroke-width="2" fill="none"/><use xlink:href="#D" transform="matrix(1,0,0,1,-1270,920) translate(238.89388020833334 28.08376736111111)"/><use xlink:href="#b" transform="matrix(1,0,0,1,-1275,962.5) translate(9.990234374999993 24.08376736111111)"/><use xlink:href="#c" transform="matrix(1,0,0,1,-1125.6666666666667,962.5) translate(0 24.08376736111111)"/><use xlink:href="#d" transform="matrix(1,0,0,1,-837.6666666666666,962.5) translate(0 24.08376736111111)"/><use xlink:href="#o" transform="matrix(1,0,0,1,-1275,999.5) translate(13.473307291666664 24.08376736111111)"/><use xlink:href="#p" transform="matrix(1,0,0,1,-1125.6666666666667,999.5) translate(0 24.08376736111111)"/><use xlink:href="#d" transform="matrix(1,0,0,1,-837.6666666666666,999.5) translate(0 24.08376736111111)"/><use xlink:href="#o" transform="matrix(1,0,0,1,-1275,1036.5) translate(13.473307291666664 24.08376736111111)"/><use xlink:href="#z" transform="matrix(1,0,0,1,-1125.6666666666667,1036.5) translate(0 24.08376736111111)"/><use xlink:href="#d" transform="matrix(1,0,0,1,-837.6666666666666,1036.5) translate(0 24.08376736111111)"/><use xlink:href="#k" transform="matrix(1,0,0,1,-1125.6666666666667,1073.5) translate(0 24.08376736111111)"/><use xlink:href="#l" transform="matrix(1,0,0,1,-837.6666666666666,1073.5) translate(0 24.08376736111111)"/><use xlink:href="#m" transform="matrix(1,0,0,1,-1125.6666666666667,1110.5) translate(0 24.08376736111111)"/><use xlink:href="#l" transform="matrix(1,0,0,1,-837.6666666666666,1110.5) translate(0 24.08376736111111)"/><path d="M800 926a6 6 0 0 1 6-6h569.52a6 6 0 0 1 6 6v176a6 6 0 0 1-6 6H806a6 6 0 0 1-6-6z" fill="#f4d9ff"/><path d="M800 926a6 6 0 0 1 6-6h569.52a6 6 0 0 1 6 6v176a6 6 0 0 1-6 6H806a6 6 0 0 1-6-6zM800 960h581.52M952 960v148M1244 960v148" stroke="#000" stroke-width="2" fill="none"/><use xlink:href="#E" transform="matrix(1,0,0,1,810,920) translate(261.5881076388889 28.08376736111111)"/><use xlink:href="#b" transform="matrix(1,0,0,1,805,962.5) translate(10.990234374999993 24.08376736111111)"/><use xlink:href="#c" transform="matrix(1,0,0,1,957,962.5) translate(0 24.08376736111111)"/><use xlink:href="#d" transform="matrix(1,0,0,1,1249,962.5) translate(0 24.08376736111111)"/><use xlink:href="#F" transform="matrix(1,0,0,1,957,999.5) translate(0 24.08376736111111)"/><use xlink:href="#f" transform="matrix(1,0,0,1,1249,999.5) translate(0 24.08376736111111)"/><use xlink:href="#k" transform="matrix(1,0,0,1,957,1036.5) translate(0 24.08376736111111)"/><use xlink:href="#l" transform="matrix(1,0,0,1,1249,1036.5) translate(0 24.08376736111111)"/><use xlink:href="#m" transform="matrix(1,0,0,1,957,1073.5) translate(0 24.08376736111111)"/><use xlink:href="#l" transform="matrix(1,0,0,1,1249,1073.5) translate(0 24.08376736111111)"/><path d="M260 1306a6 6 0 0 1 6-6h569.5a6 6 0 0 1 6 6v250a6 6 0 0 1-6 6H266a6 6 0 0 1-6-6z" fill="#fff3d9"/><path d="M260 1306a6 6 0 0 1 6-6h569.5a6 6 0 0 1 6 6v250a6 6 0 0 1-6 6H266a6 6 0 0 1-6-6zM260 1340h581.5M412 1340v222M704 1340v222" stroke="#000" stroke-width="2" fill="none"/><use xlink:href="#G" transform="matrix(1,0,0,1,270,1300) translate(199.71202256944446 28.08376736111111)"/><use xlink:href="#b" transform="matrix(1,0,0,1,265,1342.5) translate(10.990234374999993 24.08376736111111)"/><use xlink:href="#c" transform="matrix(1,0,0,1,417,1342.5) translate(0 24.08376736111111)"/><use xlink:href="#d" transform="matrix(1,0,0,1,709,1342.5) translate(0 24.08376736111111)"/><use xlink:href="#p" transform="matrix(1,0,0,1,417,1379.5) translate(0 24.08376736111111)"/><use xlink:href="#d" transform="matrix(1,0,0,1,709,1379.5) translate(0 24.08376736111111)"/><use xlink:href="#z" transform="matrix(1,0,0,1,417,1416.5) translate(0 24.08376736111111)"/><use xlink:href="#d" transform="matrix(1,0,0,1,709,1416.5) translate(0 24.08376736111111)"/><use xlink:href="#H" transform="matrix(1,0,0,1,417,1453.5) translate(0 24.08376736111111)"/><use xlink:href="#d" transform="matrix(1,0,0,1,709,1453.5) translate(0 24.08376736111111)"/><use xlink:href="#k" transform="matrix(1,0,0,1,417,1490.5) translate(0 24.08376736111111)"/><use xlink:href="#l" transform="matrix(1,0,0,1,709,1490.5) translate(0 24.08376736111111)"/><use xlink:href="#m" transform="matrix(1,0,0,1,417,1527.5) translate(0 24.08376736111111)"/><use xlink:href="#l" transform="matrix(1,0,0,1,709,1527.5) translate(0 24.08376736111111)"/><path d="M1090.76 1129v184.62a6 6 0 0 1-6 6H861.34M1090.76 1109v20m-10 0h20M842.96 1319.62h20m-20 10l20-10m-20-10l20 10M370.76 694v370a6 6 0 0 0 6 6h168a6 6 0 0 1 6 6v204.18M370.76 674v20m-10 0h20M550.76 1298.55v-20m10 20l-10-20m-10 20l10-20M-30.76 1239.8v73.82a6 6 0 0 0 6 6h264.94M-30.76 1219.8v20m-10 0h20M258.55 1319.62h-20m20-10l-20 10m20 10l-20-10" stroke="#3a414a" stroke-width="2" fill="none"/><path d="M682.5 395.2H724a6 6 0 0 1 6 6v571.1a6 6 0 0 1-6 6H279.82M662.5 395.2h20m0 10v-20M261.45 978.3h20m-20 10l20-10m-20-10l20 10M-677.5 638.38H-516a6 6 0 0 1 6 6V972.3a6 6 0 0 0 6 6h162.66M-697.5 638.38h20m0 10v-20M-322.96 978.3h-20m20-10l-20 10m20 10l-20-10M-677.5 601.25h362.26a6 6 0 0 0 6-6v-231.2a6 6 0 0 1 6-6H60.18M-697.5 601.25h20m0 10v-20M78.55 358.06h-20m20-10l-20 10m20 10l-20-10" stroke="#3a414a" stroke-width="2" fill="none"/><path d="M-677.5 236.25h14a6 6 0 0 1 6 6v21a6 6 0 0 0 6 6H-446a6 6 0 0 1 6 6V972.3a6 6 0 0 0 6 6h92.66M-697.5 236.25h20m0 10v-20M-322.96 978.3h-20m20-10l-20 10m20 10l-20-10" stroke="#3a414a" stroke-width="2" fill="none"/><path d="M-677.5 236.25h532.26a6 6 0 0 1 6 6v109.8a6 6 0 0 0 6 6H60.18M-697.5 236.25h20m0 10v-20M78.55 358.06h-20m20-10l-20 10m20 10l-20-10M-677.5 978.3H-341.33M-697.5 978.3h20m0 10v-20M-322.96 978.3h-20m20-10l-20 10m20 10l-20-10M-440.24 1279v-19.88a.12.12 0 0 1 .12-.12.12.12 0 0 0 .12-.12V984.3a6 6 0 0 1 6-6h92.66M-440.24 1299v-20m10 0h-20M-322.96 978.3h-20m20-10l-20 10m20 10l-20-10M-677.5 675.5h532.26a6 6 0 0 0 6-6V364.06a6 6 0 0 1 6-6H60.18M-697.5 675.5h20m0 10v-20M78.55 358.06h-20m20-10l-20 10m20 10l-20-10" stroke="#3a414a" stroke-width="2" fill="none"/><path d="M1061.52 52a12 12 0 0 1 12-12h296a12 12 0 0 1 12 12v292a12 12 0 0 1-12 12h-296a12 12 0 0 1-12-12z" stroke="#dfe3e8" stroke-width="2" fill="#fff"/><path d="M1142.3 138.1c0 9.56-7.75 17.3-17.3 17.3-9.57 0-17.32-7.75-17.32-17.3 0-9.57 7.75-17.32 17.3-17.32 9.57 0 17.32 7.75 17.32 17.3z" stroke="#000" stroke-opacity=".25" fill="#cfe4ff"/><path d="M1142.3 184.26c0 9.56-7.75 17.3-17.3 17.3-9.57 0-17.32-7.74-17.32-17.3s7.75-17.3 17.3-17.3c9.57 0 17.32 7.74 17.32 17.3z" stroke="#000" stroke-opacity=".25" fill="#e3fae3"/><path d="M1142.3 230.42c0 9.56-7.75 17.3-17.3 17.3-9.57 0-17.32-7.74-17.32-17.3s7.75-17.3 17.3-17.3c9.57 0 17.32 7.74 17.32 17.3z" stroke="#000" stroke-opacity=".25" fill="#fff3d9"/><path d="M1142.3 276.58c0 9.56-7.75 17.3-17.3 17.3-9.57 0-17.32-7.74-17.32-17.3s7.75-17.3 17.3-17.3c9.57 0 17.32 7.74 17.32 17.3z" stroke="#000" stroke-opacity=".25" fill="#f4d9ff"/><use xlink:href="#I" transform="matrix(1,0,0,1,1107.6769797974778,74.62166713977498) translate(0 23.337852803165603)"/><use xlink:href="#J" transform="matrix(1,0,0,1,1107.6769797974778,74.62166713977498) translate(44.75033485660259 23.337852803165603)"/><use xlink:href="#K" transform="matrix(1,0,0,1,1159.6094805071402,120.7838899928083) translate(0 23.39948392688307)"/><use xlink:href="#L" transform="matrix(1,0,0,1,1159.6094805071402,120.7838899928083) translate(39.66937834856602 23.39948392688307)"/><use xlink:href="#M" transform="matrix(1,0,0,1,1159.6094805071402,166.94611284584158) translate(0 23.39948392688307)"/><use xlink:href="#N" transform="matrix(1,0,0,1,1159.6094805071402,166.94611284584158) translate(93.65643712574848 23.39948392688307)"/><use xlink:href="#O" transform="matrix(1,0,0,1,1159.6094805071402,213.1083356988749) translate(0 23.39948392688307)"/><use xlink:href="#P" transform="matrix(1,0,0,1,1159.6094805071402,213.1083356988749) translate(71.32297904191616 23.39948392688307)"/><use xlink:href="#Q" transform="matrix(1,0,0,1,1159.6094805071402,259.2705585519082) translate(0 23.39948392688307)"/><path d="M-1280-152a8 8 0 0 1 8-8h2642.53a8 8 0 0 1 8 8v121.18a8 8 0 0 1-8 8H-1272a8 8 0 0 1-8-8z" stroke="#000" stroke-opacity="0" stroke-width="2" fill="#fff" fill-opacity="0"/><use xlink:href="#R" transform="matrix(1,0,0,1,-1275.9999999999998,-156) translate(1168.04828125 77.9925)"/><use xlink:href="#S" transform="matrix(1,0,0,1,-1275.9999999999998,-156) translate(1298.94671875 77.9925)"/><use xlink:href="#T" transform="matrix(1,0,0,1,-1275.9999999999998,-156) translate(1410.11859375 77.9925)"/><path d="M-900.25-27.3h1918.03M-900.23-27.3h-1.02M1017.76-27.3h1.02" stroke="#a9afb8" stroke-width="2" fill="none"/><path d="M-1280-14.82a8 8 0 0 1 8-8h2645.52a8 8 0 0 1 8 8V32a8 8 0 0 1-8 8H-1272a8 8 0 0 1-8-8z" stroke="#000" stroke-opacity="0" stroke-width="2" fill="#fff" fill-opacity="0"/><g><use xlink:href="#U" transform="matrix(1,0,0,1,-1275.9999999999984,-18.815920144202956) translate(1177.9771006944443 34.52027777777778)"/><use xlink:href="#V" transform="matrix(1,0,0,1,-1275.9999999999984,-18.815920144202956) translate(1255.4185069444443 34.52027777777778)"/><use xlink:href="#W" transform="matrix(1,0,0,1,-1275.9999999999984,-18.815920144202956) translate(1322.2370833333332 34.52027777777778)"/><use xlink:href="#X" transform="matrix(1,0,0,1,-1275.9999999999984,-18.815920144202956) translate(1342.1264062499997 34.52027777777778)"/><use xlink:href="#Y" transform="matrix(1,0,0,1,-1275.9999999999984,-18.815920144202956) translate(1393.0921180555554 34.52027777777778)"/><use xlink:href="#Z" transform="matrix(1,0,0,1,-1275.9999999999984,-18.815920144202956) translate(1428.0096527777775 34.52027777777778)"/></g><defs><path d="M763 24c-353 0-583-224-583-531v-983h190v968c0 214 149 370 393 370 243 0 391-156 391-370v-968h190v983c0 307-230 531-581 531" id="aa"/><path d="M538 24C308 24 148-78 108-271l171-41c32 123 123 178 257 178 156 0 256-77 256-169 0-77-54-128-164-154l-186-44c-203-48-300-148-300-305 0-192 176-326 414-326 230 0 351 112 402 269l-163 42c-31-80-94-158-238-158-133 0-233 69-233 162 0 83 57 129 188 160l169 40c203 48 298 149 298 302 0 196-179 339-441 339" id="ab"/><path d="M628 24c-324 0-524-230-524-574 0-343 198-582 503-582 237 0 487 146 487 559v75H286c9 234 145 362 343 362 132 0 231-58 273-172l174 48C1024-91 857 24 628 24zM287-650h624c-17-190-120-322-304-322-192 0-309 151-320 322" id="ac"/><path d="M158 0v-1118h174v172h12c41-113 157-188 290-188 26 0 70 2 91 3v181c-11-2-60-10-108-10-161 0-279 109-279 260V0H158" id="ad"/><g id="a"><use transform="matrix(0.010850694444444444,0,0,0.010850694444444444,0,0)" xlink:href="#aa"/><use transform="matrix(0.010850694444444444,0,0,0.010850694444444444,16.536458333333332,0)" xlink:href="#ab"/><use transform="matrix(0.010850694444444444,0,0,0.010850694444444444,28.266059027777775,0)" xlink:href="#ac"/><use transform="matrix(0.010850694444444444,0,0,0.010850694444444444,41.22178819444444,0)" xlink:href="#ad"/></g><path d="M158 418v-1536h174v179h20c37-59 106-193 324-193 279 0 474 222 474 576 0 356-194 580-473 580-213 0-288-135-325-197h-14v591H158zm492-555c209 0 317-186 317-421 0-232-105-413-317-413-206 0-314 166-314 413 0 249 111 421 314 421" id="ae"/><path d="M158 0v-1118h180V0H158zm91-1301c-68 0-125-53-125-119s57-119 125-119c69 0 126 53 126 119s-57 119-126 119" id="af"/><path d="M158 0v-1118h175l1 205c55-151 181-225 313-225 147 0 245 90 285 228 53-141 190-228 352-228 194 0 352 125 352 384V0h-181v-749c0-161-105-225-225-225-151 0-243 103-243 244V0H807v-767c0-124-93-207-219-207-131 0-250 92-250 270V0H158" id="ag"/><path d="M471 26C259 26 90-98 90-318c0-256 228-303 435-329 202-27 287-16 287-108 0-139-79-219-234-219-161 0-248 86-283 164l-173-57c86-203 278-265 451-265 150 0 419 46 419 395V0H815v-152h-12C765-73 660 26 471 26zm31-159c199 0 310-134 310-271v-155c-30 35-226 55-295 64-131 17-246 59-246 186 0 116 97 176 231 176" id="ah"/><path d="M140 405l46-156c120 36 205 19 263-150l32-93L54-1118h197c107 313 237 620 324 950 87-331 219-637 326-950h196L606 167c-68 178-176 259-334 259-64 0-113-12-132-21" id="ai"/><path d="M180 0v-1490h190c0 262 1 526-3 784 217-279 467-523 702-784h249L716-845 1319 0h-225L585-716 370-489V0H180" id="aj"/><g id="b"><use transform="matrix(0.010850694444444444,0,0,0.010850694444444444,0,0)" xlink:href="#ae"/><use transform="matrix(0.010850694444444444,0,0,0.010850694444444444,13.606770833333332,0)" xlink:href="#ad"/><use transform="matrix(0.010850694444444444,0,0,0.010850694444444444,22.31987847222222,0)" xlink:href="#af"/><use transform="matrix(0.010850694444444444,0,0,0.010850694444444444,27.701822916666664,0)" xlink:href="#ag"/><use transform="matrix(0.010850694444444444,0,0,0.010850694444444444,47.16796875,0)" xlink:href="#ah"/><use transform="matrix(0.010850694444444444,0,0,0.010850694444444444,59.64626736111112,0)" xlink:href="#ad"/><use transform="matrix(0.010850694444444444,0,0,0.010850694444444444,68.359375,0)" xlink:href="#ai"/><use transform="matrix(0.010850694444444444,0,0,0.010850694444444444,80.95703125,0)" xlink:href="#aj"/><use transform="matrix(0.010850694444444444,0,0,0.010850694444444444,95.00868055555556,0)" xlink:href="#ac"/><use transform="matrix(0.010850694444444444,0,0,0.010850694444444444,107.53038194444446,0)" xlink:href="#ai"/></g><path d="M934 0v166H0V0h934" id="ak"/><path d="M577 24c-279 0-473-224-473-580 0-354 195-576 474-576 218 0 287 134 324 193h14v-551h180V0H922v-173h-20C865-111 790 24 577 24zm27-161c203 0 314-172 314-421 0-247-108-413-314-413-212 0-317 181-317 413 0 235 108 421 317 421" id="al"/><g id="c"><use transform="matrix(0.010850694444444444,0,0,0.010850694444444444,0,0)" xlink:href="#ak"/><use transform="matrix(0.010850694444444444,0,0,0.010850694444444444,10.883246527777777,0)" xlink:href="#af"/><use transform="matrix(0.010850694444444444,0,0,0.010850694444444444,16.26519097222222,0)" xlink:href="#al"/></g><path d="M784 20c-382 0-662-292-662-764 0-473 280-766 662-766s660 293 660 766c0 472-278 764-660 764zm0-176c266 0 475-207 475-588 0-383-209-590-475-590-268 0-477 208-477 590 0 380 209 588 477 588" id="am"/><path d="M677 24c-213 0-288-135-325-197h-20V0H158v-1490h180v551h14c37-59 106-193 324-193 279 0 474 222 474 576 0 356-194 580-473 580zm-27-161c209 0 317-186 317-421 0-232-105-413-317-413-206 0-314 166-314 413 0 249 111 421 314 421" id="an"/><path d="M157-1118h181V80c1 225-123 350-364 338V252c126 9 184-48 183-172v-1198zm91-183c-68 0-125-53-125-119s57-119 125-119c69 0 126 53 126 119s-57 119-126 119" id="ao"/><path d="M613 24c-304 0-509-231-509-576 0-350 205-580 509-580 216 0 392 114 453 309l-173 49c-33-115-133-197-280-197-223 0-326 196-326 419 0 220 103 415 326 415 150 0 252-85 285-206l172 49C1010-95 832 24 613 24" id="ap"/><path d="M598-1118v154H368v674c0 100 37 144 132 144 23 0 62-6 92-12L629-6c-37 13-88 20-134 20-193 0-307-107-307-290v-688H20v-154h168v-266h180v266h230" id="aq"/><path d="M370-1490V0H180v-1490h190" id="ar"/><path d="M645 0H180v-1490h484c435 0 692 280 692 742 0 466-257 748-711 748zM370-168h263c363 0 539-218 539-580 0-358-176-574-521-574H370v1154" id="as"/><g id="d"><use transform="matrix(0.010850694444444444,0,0,0.010850694444444444,0,0)" xlink:href="#am"/><use transform="matrix(0.010850694444444444,0,0,0.010850694444444444,16.9921875,0)" xlink:href="#an"/><use transform="matrix(0.010850694444444444,0,0,0.010850694444444444,30.598958333333332,0)" xlink:href="#ao"/><use transform="matrix(0.010850694444444444,0,0,0.010850694444444444,35.98090277777778,0)" xlink:href="#ac"/><use transform="matrix(0.010850694444444444,0,0,0.010850694444444444,48.93663194444444,0)" xlink:href="#ap"/><use transform="matrix(0.010850694444444444,0,0,0.010850694444444444,61.63194444444444,0)" xlink:href="#aq"/><use transform="matrix(0.010850694444444444,0,0,0.010850694444444444,68.90190972222221,0)" xlink:href="#ar"/><use transform="matrix(0.010850694444444444,0,0,0.010850694444444444,74.86979166666666,0)" xlink:href="#as"/></g><path d="M537 14c-226 0-379-139-379-422v-710h180v695c0 172 97 275 253 275 160 0 281-109 281-300v-670h181V0H879v-209C806-46 684 14 537 14" id="at"/><path d="M338-670V0H158v-1118h173l1 207c72-158 192-221 342-221 226 0 378 139 378 422V0H872v-695c0-172-96-275-252-275-161 0-282 109-282 300" id="au"/><g id="e"><use transform="matrix(0.010850694444444444,0,0,0.010850694444444444,0,0)" xlink:href="#at"/><use transform="matrix(0.010850694444444444,0,0,0.010850694444444444,13.140190972222221,0)" xlink:href="#ab"/><use transform="matrix(0.010850694444444444,0,0,0.010850694444444444,24.869791666666664,0)" xlink:href="#ac"/><use transform="matrix(0.010850694444444444,0,0,0.010850694444444444,37.82552083333333,0)" xlink:href="#ad"/><use transform="matrix(0.010850694444444444,0,0,0.010850694444444444,46.53862847222221,0)" xlink:href="#au"/><use transform="matrix(0.010850694444444444,0,0,0.010850694444444444,59.667968749999986,0)" xlink:href="#ah"/><use transform="matrix(0.010850694444444444,0,0,0.010850694444444444,72.1462673611111,0)" xlink:href="#ag"/><use transform="matrix(0.010850694444444444,0,0,0.010850694444444444,91.61241319444441,0)" xlink:href="#ac"/></g><path d="M611 442c-248 0-391-105-460-228l146-94c47 65 117 165 314 165 178 0 307-82 307-266v-224h-17C863-141 792-18 576-18c-268 0-472-195-472-546 0-346 197-568 476-568 216 0 288 133 326 193h17v-179h175V29c0 289-215 413-487 413zm-5-620c203 0 314-146 314-390 0-237-108-403-314-403-213 0-319 180-319 403 0 230 109 390 319 390" id="av"/><g id="f"><use transform="matrix(0.010850694444444444,0,0,0.010850694444444444,0,0)" xlink:href="#ab"/><use transform="matrix(0.010850694444444444,0,0,0.010850694444444444,11.729600694444445,0)" xlink:href="#aq"/><use transform="matrix(0.010850694444444444,0,0,0.010850694444444444,18.99956597222222,0)" xlink:href="#ad"/><use transform="matrix(0.010850694444444444,0,0,0.010850694444444444,27.712673611111104,0)" xlink:href="#af"/><use transform="matrix(0.010850694444444444,0,0,0.010850694444444444,33.09461805555555,0)" xlink:href="#au"/><use transform="matrix(0.010850694444444444,0,0,0.010850694444444444,46.22395833333333,0)" xlink:href="#av"/></g><path d="M338-1490V0H158v-1490h180" id="aw"/><g id="g"><use transform="matrix(0.010850694444444444,0,0,0.010850694444444444,0,0)" xlink:href="#ac"/><use transform="matrix(0.010850694444444444,0,0,0.010850694444444444,12.955729166666666,0)" xlink:href="#ag"/><use transform="matrix(0.010850694444444444,0,0,0.010850694444444444,32.421875,0)" xlink:href="#ah"/><use transform="matrix(0.010850694444444444,0,0,0.010850694444444444,44.90017361111111,0)" xlink:href="#af"/><use transform="matrix(0.010850694444444444,0,0,0.010850694444444444,50.28211805555556,0)" xlink:href="#aw"/></g><path d="M180 0v-1490h270l367 940c28 72 75 218 110 339 35-117 81-264 110-339l362-940h271V0h-187c2-448-5-837 7-1287-157 497-311 829-483 1287H842C666-458 514-784 354-1284c12 438 5 843 7 1284H180" id="ax"/><g id="h"><use transform="matrix(0.010850694444444444,0,0,0.010850694444444444,0,0)" xlink:href="#af"/><use transform="matrix(0.010850694444444444,0,0,0.010850694444444444,5.381944444444445,0)" xlink:href="#ab"/><use transform="matrix(0.010850694444444444,0,0,0.010850694444444444,17.11154513888889,0)" xlink:href="#ax"/><use transform="matrix(0.010850694444444444,0,0,0.010850694444444444,37.185329861111114,0)" xlink:href="#ac"/><use transform="matrix(0.010850694444444444,0,0,0.010850694444444444,50.14105902777778,0)" xlink:href="#ag"/><use transform="matrix(0.010850694444444444,0,0,0.010850694444444444,69.60720486111111,0)" xlink:href="#an"/><use transform="matrix(0.010850694444444444,0,0,0.010850694444444444,83.21397569444444,0)" xlink:href="#ac"/><use transform="matrix(0.010850694444444444,0,0,0.010850694444444444,96.16970486111111,0)" xlink:href="#ad"/></g><path d="M613 24c-304 0-509-231-509-576 0-350 205-580 509-580 305 0 511 230 511 580 0 345-206 576-511 576zm0-161c226 0 329-195 329-415 0-222-103-419-329-419-223 0-326 196-326 419 0 220 103 415 326 415" id="ay"/><g id="i"><use transform="matrix(0.010850694444444444,0,0,0.010850694444444444,0,0)" xlink:href="#an"/><use transform="matrix(0.010850694444444444,0,0,0.010850694444444444,13.606770833333332,0)" xlink:href="#ay"/><use transform="matrix(0.010850694444444444,0,0,0.010850694444444444,26.931423611111104,0)" xlink:href="#ay"/><use transform="matrix(0.010850694444444444,0,0,0.010850694444444444,40.256076388888886,0)" xlink:href="#aw"/><use transform="matrix(0.010850694444444444,0,0,0.010850694444444444,45.63802083333333,0)" xlink:href="#ac"/><use transform="matrix(0.010850694444444444,0,0,0.010850694444444444,58.81076388888888,0)" xlink:href="#ah"/><use transform="matrix(0.010850694444444444,0,0,0.010850694444444444,71.28906249999999,0)" xlink:href="#au"/></g><path d="M409 0L70-1118h191c89 329 165 560 243 925 75-353 154-601 240-925h192c85 325 161 564 235 922 77-354 157-598 244-922h191L1267 0h-179c-86-307-176-590-250-913C763-588 675-308 588 0H409" id="az"/><path d="M180 0v-1490h190v644h782v-644h190V0h-190v-678H370V0H180" id="aA"/><path d="M338-670V0H158v-1490h180v566c73-149 190-208 336-208 226 0 379 139 379 422V0H872v-695c0-172-96-275-252-275-161 0-282 109-282 300" id="aB"/><g id="j"><use transform="matrix(0.010850694444444444,0,0,0.010850694444444444,0,0)" xlink:href="#ae"/><use transform="matrix(0.010850694444444444,0,0,0.010850694444444444,13.823784722222221,0)" xlink:href="#ah"/><use transform="matrix(0.010850694444444444,0,0,0.010850694444444444,26.302083333333332,0)" xlink:href="#ab"/><use transform="matrix(0.010850694444444444,0,0,0.010850694444444444,38.03168402777778,0)" xlink:href="#ab"/><use transform="matrix(0.010850694444444444,0,0,0.010850694444444444,49.76128472222222,0)" xlink:href="#az"/><use transform="matrix(0.010850694444444444,0,0,0.010850694444444444,67.54557291666667,0)" xlink:href="#ay"/><use transform="matrix(0.010850694444444444,0,0,0.010850694444444444,80.87022569444444,0)" xlink:href="#ad"/><use transform="matrix(0.010850694444444444,0,0,0.010850694444444444,88.8671875,0)" xlink:href="#al"/><use transform="matrix(0.010850694444444444,0,0,0.010850694444444444,102.47395833333333,0)" xlink:href="#aA"/><use transform="matrix(0.010850694444444444,0,0,0.010850694444444444,118.98871527777777,0)" xlink:href="#ah"/><use transform="matrix(0.010850694444444444,0,0,0.010850694444444444,131.46701388888889,0)" xlink:href="#ab"/><use transform="matrix(0.010850694444444444,0,0,0.010850694444444444,143.19661458333334,0)" xlink:href="#aB"/></g><path d="M52 0l541-1490h220L1361 0h-200l-149-416H398L254 0H52zm404-582h497c-103-290-145-390-251-756-108 377-145 460-246 756" id="aC"/><g id="k"><use transform="matrix(0.010850694444444444,0,0,0.010850694444444444,0,0)" xlink:href="#ap"/><use transform="matrix(0.010850694444444444,0,0,0.010850694444444444,12.6953125,0)" xlink:href="#ad"/><use transform="matrix(0.010850694444444444,0,0,0.010850694444444444,20.692274305555557,0)" xlink:href="#ac"/><use transform="matrix(0.010850694444444444,0,0,0.010850694444444444,33.865017361111114,0)" xlink:href="#ah"/><use transform="matrix(0.010850694444444444,0,0,0.010850694444444444,46.34331597222223,0)" xlink:href="#aq"/><use transform="matrix(0.010850694444444444,0,0,0.010850694444444444,53.39626736111112,0)" xlink:href="#ac"/><use transform="matrix(0.010850694444444444,0,0,0.010850694444444444,66.35199652777779,0)" xlink:href="#al"/><use transform="matrix(0.010850694444444444,0,0,0.010850694444444444,79.95876736111111,0)" xlink:href="#aC"/><use transform="matrix(0.010850694444444444,0,0,0.010850694444444444,94.85677083333334,0)" xlink:href="#aq"/></g><g id="l"><use transform="matrix(0.010850694444444444,0,0,0.010850694444444444,0,0)" xlink:href="#as"/><use transform="matrix(0.010850694444444444,0,0,0.010850694444444444,16.03732638888889,0)" xlink:href="#ah"/><use transform="matrix(0.010850694444444444,0,0,0.010850694444444444,28.515625,0)" xlink:href="#aq"/><use transform="matrix(0.010850694444444444,0,0,0.010850694444444444,35.568576388888886,0)" xlink:href="#ac"/></g><g id="m"><use transform="matrix(0.010850694444444444,0,0,0.010850694444444444,0,0)" xlink:href="#at"/><use transform="matrix(0.010850694444444444,0,0,0.010850694444444444,13.140190972222221,0)" xlink:href="#ae"/><use transform="matrix(0.010850694444444444,0,0,0.010850694444444444,26.746961805555554,0)" xlink:href="#al"/><use transform="matrix(0.010850694444444444,0,0,0.010850694444444444,40.353732638888886,0)" xlink:href="#ah"/><use transform="matrix(0.010850694444444444,0,0,0.010850694444444444,52.83203125,0)" xlink:href="#aq"/><use transform="matrix(0.010850694444444444,0,0,0.010850694444444444,59.8849826388889,0)" xlink:href="#ac"/><use transform="matrix(0.010850694444444444,0,0,0.010850694444444444,72.84071180555556,0)" xlink:href="#al"/><use transform="matrix(0.010850694444444444,0,0,0.010850694444444444,86.44748263888889,0)" xlink:href="#aC"/><use transform="matrix(0.010850694444444444,0,0,0.010850694444444444,101.34548611111111,0)" xlink:href="#aq"/></g><g id="n"><use transform="matrix(0.010850694444444444,0,0,0.010850694444444444,0,0)" xlink:href="#ax"/><use transform="matrix(0.010850694444444444,0,0,0.010850694444444444,20.07378472222222,0)" xlink:href="#ac"/><use transform="matrix(0.010850694444444444,0,0,0.010850694444444444,33.029513888888886,0)" xlink:href="#ag"/><use transform="matrix(0.010850694444444444,0,0,0.010850694444444444,52.49565972222221,0)" xlink:href="#an"/><use transform="matrix(0.010850694444444444,0,0,0.010850694444444444,66.10243055555554,0)" xlink:href="#ac"/><use transform="matrix(0.010850694444444444,0,0,0.010850694444444444,79.05815972222221,0)" xlink:href="#ad"/><use transform="matrix(0.010850694444444444,0,0,0.010850694444444444,87.42404513888889,0)" xlink:href="#ab"/><use transform="matrix(0.010850694444444444,0,0,0.010850694444444444,99.15364583333333,0)" xlink:href="#aB"/><use transform="matrix(0.010850694444444444,0,0,0.010850694444444444,112.29383680555556,0)" xlink:href="#af"/><use transform="matrix(0.010850694444444444,0,0,0.010850694444444444,117.67578124999997,0)" xlink:href="#ae"/></g><path d="M678-1118v154H420V0H240v-964H20v-154h220v-149c0-194 155-293 318-293 85 0 141 18 168 30l-50 154c-19-6-47-17-97-17-111 0-159 58-159 166v109h258" id="aD"/><g id="o"><use transform="matrix(0.010850694444444444,0,0,0.010850694444444444,0,0)" xlink:href="#aD"/><use transform="matrix(0.010850694444444444,0,0,0.010850694444444444,7.573784722222222,0)" xlink:href="#ay"/><use transform="matrix(0.010850694444444444,0,0,0.010850694444444444,20.8984375,0)" xlink:href="#ad"/><use transform="matrix(0.010850694444444444,0,0,0.010850694444444444,28.89539930555556,0)" xlink:href="#ac"/><use transform="matrix(0.010850694444444444,0,0,0.010850694444444444,41.85112847222222,0)" xlink:href="#af"/><use transform="matrix(0.010850694444444444,0,0,0.010850694444444444,47.233072916666664,0)" xlink:href="#av"/><use transform="matrix(0.010850694444444444,0,0,0.010850694444444444,60.861545138888886,0)" xlink:href="#au"/><use transform="matrix(0.010850694444444444,0,0,0.010850694444444444,73.99088541666666,0)" xlink:href="#aj"/><use transform="matrix(0.010850694444444444,0,0,0.010850694444444444,88.04253472222221,0)" xlink:href="#ac"/><use transform="matrix(0.010850694444444444,0,0,0.010850694444444444,100.56423611111111,0)" xlink:href="#ai"/></g><g id="p"><use transform="matrix(0.010850694444444444,0,0,0.010850694444444444,0,0)" xlink:href="#at"/><use transform="matrix(0.010850694444444444,0,0,0.010850694444444444,13.140190972222221,0)" xlink:href="#ab"/><use transform="matrix(0.010850694444444444,0,0,0.010850694444444444,24.869791666666664,0)" xlink:href="#ac"/><use transform="matrix(0.010850694444444444,0,0,0.010850694444444444,37.82552083333333,0)" xlink:href="#ad"/></g><g id="q"><use transform="matrix(0.010850694444444444,0,0,0.010850694444444444,0,0)" xlink:href="#ad"/><use transform="matrix(0.010850694444444444,0,0,0.010850694444444444,7.996961805555555,0)" xlink:href="#ay"/><use transform="matrix(0.010850694444444444,0,0,0.010850694444444444,21.321614583333332,0)" xlink:href="#aw"/><use transform="matrix(0.010850694444444444,0,0,0.010850694444444444,26.70355902777778,0)" xlink:href="#ac"/></g><g id="r"><use transform="matrix(0.010850694444444444,0,0,0.010850694444444444,0,0)" xlink:href="#ax"/><use transform="matrix(0.010850694444444444,0,0,0.010850694444444444,20.07378472222222,0)" xlink:href="#ac"/><use transform="matrix(0.010850694444444444,0,0,0.010850694444444444,33.029513888888886,0)" xlink:href="#ag"/><use transform="matrix(0.010850694444444444,0,0,0.010850694444444444,52.49565972222221,0)" xlink:href="#ac"/></g><g id="s"><use transform="matrix(0.010850694444444444,0,0,0.010850694444444444,0,0)" xlink:href="#aq"/><use transform="matrix(0.010850694444444444,0,0,0.010850694444444444,7.269965277777778,0)" xlink:href="#af"/><use transform="matrix(0.010850694444444444,0,0,0.010850694444444444,12.651909722222221,0)" xlink:href="#aq"/><use transform="matrix(0.010850694444444444,0,0,0.010850694444444444,19.921875,0)" xlink:href="#aw"/><use transform="matrix(0.010850694444444444,0,0,0.010850694444444444,25.303819444444443,0)" xlink:href="#ac"/></g><path d="M180 0v-1490h510c348 0 508 194 508 460 0 198-88 351-276 417L1256 0h-220L726-579c-117 2-238 0-356 1V0H180zm190-747h312c235 0 327-108 327-283 0-177-92-293-329-293H370v576" id="aE"/><path d="M180 0v-1490h190v1322h690V0H180" id="aF"/><g id="t"><use transform="matrix(0.010850694444444444,0,0,0.010850694444444444,0,0)" xlink:href="#af"/><use transform="matrix(0.010850694444444444,0,0,0.010850694444444444,5.381944444444445,0)" xlink:href="#ag"/><use transform="matrix(0.010850694444444444,0,0,0.010850694444444444,24.84809027777778,0)" xlink:href="#ah"/><use transform="matrix(0.010850694444444444,0,0,0.010850694444444444,37.326388888888886,0)" xlink:href="#av"/><use transform="matrix(0.010850694444444444,0,0,0.010850694444444444,50.95486111111111,0)" xlink:href="#ac"/><use transform="matrix(0.010850694444444444,0,0,0.010850694444444444,63.91059027777778,0)" xlink:href="#aa"/><use transform="matrix(0.010850694444444444,0,0,0.010850694444444444,80.4470486111111,0)" xlink:href="#aE"/><use transform="matrix(0.010850694444444444,0,0,0.010850694444444444,94.74826388888887,0)" xlink:href="#aF"/></g><g id="u"><use transform="matrix(0.010850694444444444,0,0,0.010850694444444444,0,0)" xlink:href="#ad"/><use transform="matrix(0.010850694444444444,0,0,0.010850694444444444,8.365885416666666,0)" xlink:href="#ah"/><use transform="matrix(0.010850694444444444,0,0,0.010850694444444444,20.84418402777778,0)" xlink:href="#aq"/><use transform="matrix(0.010850694444444444,0,0,0.010850694444444444,28.11414930555556,0)" xlink:href="#af"/><use transform="matrix(0.010850694444444444,0,0,0.010850694444444444,33.49609375,0)" xlink:href="#au"/><use transform="matrix(0.010850694444444444,0,0,0.010850694444444444,46.62543402777778,0)" xlink:href="#av"/></g><g id="v"><use transform="matrix(0.010850694444444444,0,0,0.010850694444444444,0,0)" xlink:href="#au"/><use transform="matrix(0.010850694444444444,0,0,0.010850694444444444,13.129340277777777,0)" xlink:href="#at"/><use transform="matrix(0.010850694444444444,0,0,0.010850694444444444,26.26953125,0)" xlink:href="#ag"/><use transform="matrix(0.010850694444444444,0,0,0.010850694444444444,45.73567708333333,0)" xlink:href="#an"/><use transform="matrix(0.010850694444444444,0,0,0.010850694444444444,59.34244791666666,0)" xlink:href="#ac"/><use transform="matrix(0.010850694444444444,0,0,0.010850694444444444,72.29817708333333,0)" xlink:href="#ad"/></g><g id="w"><use transform="matrix(0.010850694444444444,0,0,0.010850694444444444,0,0)" xlink:href="#ap"/><use transform="matrix(0.010850694444444444,0,0,0.010850694444444444,12.91232638888889,0)" xlink:href="#ah"/><use transform="matrix(0.010850694444444444,0,0,0.010850694444444444,25.390625,0)" xlink:href="#ae"/><use transform="matrix(0.010850694444444444,0,0,0.010850694444444444,38.99739583333333,0)" xlink:href="#aq"/><use transform="matrix(0.010850694444444444,0,0,0.010850694444444444,46.26736111111111,0)" xlink:href="#af"/><use transform="matrix(0.010850694444444444,0,0,0.010850694444444444,51.64930555555556,0)" xlink:href="#ay"/><use transform="matrix(0.010850694444444444,0,0,0.010850694444444444,64.97395833333333,0)" xlink:href="#au"/></g><g id="x"><use transform="matrix(0.010850694444444444,0,0,0.010850694444444444,0,0)" xlink:href="#af"/><use transform="matrix(0.010850694444444444,0,0,0.010850694444444444,5.381944444444445,0)" xlink:href="#ab"/><use transform="matrix(0.010850694444444444,0,0,0.010850694444444444,17.11154513888889,0)" xlink:href="#as"/><use transform="matrix(0.010850694444444444,0,0,0.010850694444444444,33.14887152777778,0)" xlink:href="#ad"/><use transform="matrix(0.010850694444444444,0,0,0.010850694444444444,41.51475694444444,0)" xlink:href="#ah"/><use transform="matrix(0.010850694444444444,0,0,0.010850694444444444,53.99305555555556,0)" xlink:href="#aD"/><use transform="matrix(0.010850694444444444,0,0,0.010850694444444444,61.45833333333333,0)" xlink:href="#aq"/></g><path d="M783 20c-382 0-661-292-661-764 0-473 279-766 661-766 302 0 548 182 601 489h-190c-42-204-217-313-411-313-268 0-476 208-476 590 0 381 209 588 476 588 195 0 369-110 411-313h190c-52 303-296 489-601 489" id="aG"/><g id="y"><use transform="matrix(0.010850694444444444,0,0,0.010850694444444444,0,0)" xlink:href="#aG"/><use transform="matrix(0.010850694444444444,0,0,0.010850694444444444,16.23263888888889,0)" xlink:href="#ay"/><use transform="matrix(0.010850694444444444,0,0,0.010850694444444444,29.557291666666664,0)" xlink:href="#ag"/><use transform="matrix(0.010850694444444444,0,0,0.010850694444444444,49.0234375,0)" xlink:href="#ag"/><use transform="matrix(0.010850694444444444,0,0,0.010850694444444444,68.48958333333333,0)" xlink:href="#ac"/><use transform="matrix(0.010850694444444444,0,0,0.010850694444444444,81.4453125,0)" xlink:href="#au"/><use transform="matrix(0.010850694444444444,0,0,0.010850694444444444,94.57465277777777,0)" xlink:href="#aq"/></g><g id="z"><use transform="matrix(0.010850694444444444,0,0,0.010850694444444444,0,0)" xlink:href="#ag"/><use transform="matrix(0.010850694444444444,0,0,0.010850694444444444,19.466145833333332,0)" xlink:href="#ac"/><use transform="matrix(0.010850694444444444,0,0,0.010850694444444444,32.421875,0)" xlink:href="#ag"/><use transform="matrix(0.010850694444444444,0,0,0.010850694444444444,51.88802083333333,0)" xlink:href="#ac"/></g><g id="A"><use transform="matrix(0.010850694444444444,0,0,0.010850694444444444,0,0)" xlink:href="#ap"/><use transform="matrix(0.010850694444444444,0,0,0.010850694444444444,12.6953125,0)" xlink:href="#ay"/><use transform="matrix(0.010850694444444444,0,0,0.010850694444444444,26.01996527777778,0)" xlink:href="#au"/><use transform="matrix(0.010850694444444444,0,0,0.010850694444444444,39.14930555555556,0)" xlink:href="#aq"/><use transform="matrix(0.010850694444444444,0,0,0.010850694444444444,46.20225694444445,0)" xlink:href="#ac"/><use transform="matrix(0.010850694444444444,0,0,0.010850694444444444,59.15798611111112,0)" xlink:href="#au"/><use transform="matrix(0.010850694444444444,0,0,0.010850694444444444,72.28732638888889,0)" xlink:href="#aq"/></g><g id="B"><use transform="matrix(0.010850694444444444,0,0,0.010850694444444444,0,0)" xlink:href="#aE"/><use transform="matrix(0.010850694444444444,0,0,0.010850694444444444,14.192708333333332,0)" xlink:href="#ah"/><use transform="matrix(0.010850694444444444,0,0,0.010850694444444444,26.671006944444443,0)" xlink:href="#aq"/><use transform="matrix(0.010850694444444444,0,0,0.010850694444444444,33.94097222222222,0)" xlink:href="#af"/><use transform="matrix(0.010850694444444444,0,0,0.010850694444444444,39.322916666666664,0)" xlink:href="#au"/><use transform="matrix(0.010850694444444444,0,0,0.010850694444444444,52.45225694444444,0)" xlink:href="#av"/></g><path d="M481 0L54-1118h197c107 314 236 620 325 951 87-331 217-637 324-951h197L670 0H481" id="aH"/><g id="C"><use transform="matrix(0.010850694444444444,0,0,0.010850694444444444,0,0)" xlink:href="#aH"/><use transform="matrix(0.010850694444444444,0,0,0.010850694444444444,12.38064236111111,0)" xlink:href="#ah"/><use transform="matrix(0.010850694444444444,0,0,0.010850694444444444,24.85894097222222,0)" xlink:href="#aw"/><use transform="matrix(0.010850694444444444,0,0,0.010850694444444444,30.240885416666664,0)" xlink:href="#at"/><use transform="matrix(0.010850694444444444,0,0,0.010850694444444444,43.381076388888886,0)" xlink:href="#ac"/></g><path d="M180 0v-1490h901v168H370v510h643v168H370V0H180" id="aI"/><g id="D"><use transform="matrix(0.010850694444444444,0,0,0.010850694444444444,0,0)" xlink:href="#aI"/><use transform="matrix(0.010850694444444444,0,0,0.010850694444444444,12.57595486111111,0)" xlink:href="#ah"/><use transform="matrix(0.010850694444444444,0,0,0.010850694444444444,24.72873263888889,0)" xlink:href="#aH"/><use transform="matrix(0.010850694444444444,0,0,0.010850694444444444,36.783854166666664,0)" xlink:href="#ay"/><use transform="matrix(0.010850694444444444,0,0,0.010850694444444444,50.10850694444444,0)" xlink:href="#ad"/><use transform="matrix(0.010850694444444444,0,0,0.010850694444444444,58.82161458333333,0)" xlink:href="#af"/><use transform="matrix(0.010850694444444444,0,0,0.010850694444444444,64.20355902777777,0)" xlink:href="#aq"/><use transform="matrix(0.010850694444444444,0,0,0.010850694444444444,71.25651041666666,0)" xlink:href="#ac"/></g><path d="M98-1322v-168h1126v168H757V0H567v-1322H98" id="aJ"/><g id="E"><use transform="matrix(0.010850694444444444,0,0,0.010850694444444444,0,0)" xlink:href="#aJ"/><use transform="matrix(0.010850694444444444,0,0,0.010850694444444444,12.71701388888889,0)" xlink:href="#ah"/><use transform="matrix(0.010850694444444444,0,0,0.010850694444444444,25.1953125,0)" xlink:href="#av"/></g><g id="F"><use transform="matrix(0.010850694444444444,0,0,0.010850694444444444,0,0)" xlink:href="#au"/><use transform="matrix(0.010850694444444444,0,0,0.010850694444444444,13.129340277777777,0)" xlink:href="#ah"/><use transform="matrix(0.010850694444444444,0,0,0.010850694444444444,25.60763888888889,0)" xlink:href="#ag"/><use transform="matrix(0.010850694444444444,0,0,0.010850694444444444,45.07378472222221,0)" xlink:href="#ac"/></g><g id="G"><use transform="matrix(0.010850694444444444,0,0,0.010850694444444444,0,0)" xlink:href="#aJ"/><use transform="matrix(0.010850694444444444,0,0,0.010850694444444444,12.71701388888889,0)" xlink:href="#ah"/><use transform="matrix(0.010850694444444444,0,0,0.010850694444444444,25.1953125,0)" xlink:href="#av"/><use transform="matrix(0.010850694444444444,0,0,0.010850694444444444,38.82378472222222,0)" xlink:href="#aC"/><use transform="matrix(0.010850694444444444,0,0,0.010850694444444444,54.15581597222222,0)" xlink:href="#ab"/><use transform="matrix(0.010850694444444444,0,0,0.010850694444444444,65.88541666666667,0)" xlink:href="#ab"/><use transform="matrix(0.010850694444444444,0,0,0.010850694444444444,77.61501736111111,0)" xlink:href="#af"/><use transform="matrix(0.010850694444444444,0,0,0.010850694444444444,82.99696180555556,0)" xlink:href="#av"/><use transform="matrix(0.010850694444444444,0,0,0.010850694444444444,96.62543402777777,0)" xlink:href="#au"/><use transform="matrix(0.010850694444444444,0,0,0.010850694444444444,109.75477430555556,0)" xlink:href="#ag"/><use transform="matrix(0.010850694444444444,0,0,0.010850694444444444,129.22092013888889,0)" xlink:href="#ac"/><use transform="matrix(0.010850694444444444,0,0,0.010850694444444444,142.17664930555554,0)" xlink:href="#au"/><use transform="matrix(0.010850694444444444,0,0,0.010850694444444444,155.30598958333331,0)" xlink:href="#aq"/></g><g id="H"><use transform="matrix(0.010850694444444444,0,0,0.010850694444444444,0,0)" xlink:href="#aq"/><use transform="matrix(0.010850694444444444,0,0,0.010850694444444444,7.378472222222222,0)" xlink:href="#ah"/><use transform="matrix(0.010850694444444444,0,0,0.010850694444444444,19.856770833333332,0)" xlink:href="#av"/></g><path d="M786 20C389 20 94-260 94-744c0-487 299-766 692-766 339 0 597 194 641 529h-309c-28-162-156-258-326-258-233 0-388 179-388 495 0 323 157 493 387 493 170 0 298-97 328-259h309c-34 277-266 530-642 530" id="aK"/><path d="M628 22C291 22 81-210 81-554c0-346 210-578 547-578 336 0 547 232 547 578 0 344-211 576-547 576zm0-236c160 0 242-146 242-341 0-197-82-341-242-341S387-753 387-555c0 195 81 341 241 341" id="aL"/><path d="M428-1490V0H128v-1490h300" id="aM"/><path d="M128 0v-1118h290v195h12c54-169 184-238 367-200v268c-27-8-86-15-130-15-138 0-239 95-239 234V0H128" id="aN"/><g id="I"><use transform="matrix(0.007583517176173969,0,0,0.007583517176173969,0,0)" xlink:href="#aK"/><use transform="matrix(0.007583517176173969,0,0,0.007583517176173969,11.489028521903563,0)" xlink:href="#aL"/><use transform="matrix(0.007583517176173969,0,0,0.007583517176173969,21.013926095178068,0)" xlink:href="#aM"/><use transform="matrix(0.007583517176173969,0,0,0.007583517176173969,25.22277812795462,0)" xlink:href="#aL"/><use transform="matrix(0.007583517176173969,0,0,0.007583517176173969,34.74767570122913,0)" xlink:href="#aN"/></g><path d="M135 0v-1490h305c1 251 0 501-5 746 157-254 405-512 598-746h373L849-845 1422 0h-361L638-644 440-426V0H135" id="aO"/><path d="M633 22C291 22 81-200 81-553c0-345 210-579 537-579 292 0 525 185 525 567v84H378c7 183 109 277 260 277 105 0 184-46 216-132l272 51C1071-99 893 22 633 22zM380-669h474c-15-146-94-237-233-237-143 0-229 99-241 237" id="aP"/><path d="M120 396l69-226c123 42 245 23 254-107l8-60L31-1118h319c87 288 199 559 259 872 72-308 185-583 277-872h315L726 132c-68 181-186 294-410 294-79 0-153-13-196-30" id="aQ"/><g id="J"><use transform="matrix(0.007583517176173969,0,0,0.007583517176173969,0,0)" xlink:href="#aO"/><use transform="matrix(0.007583517176173969,0,0,0.007583517176173969,10.556255909234164,0)" xlink:href="#aP"/><use transform="matrix(0.007583517176173969,0,0,0.007583517176173969,19.52755672864797,0)" xlink:href="#aQ"/></g><g id="K"><use transform="matrix(0.007583517176173967,0,0,0.007583517176173967,0,0)" xlink:href="#aG"/><use transform="matrix(0.007583517176173967,0,0,0.007583517176173967,11.344941695556255,0)" xlink:href="#ay"/><use transform="matrix(0.007583517176173967,0,0,0.007583517176173967,20.657500787897884,0)" xlink:href="#ad"/><use transform="matrix(0.007583517176173967,0,0,0.007583517176173967,26.2465529467381,0)" xlink:href="#ac"/></g><g id="L"><use transform="matrix(0.007583517176173967,0,0,0.007583517176173967,0,0)" xlink:href="#aG"/><use transform="matrix(0.007583517176173967,0,0,0.007583517176173967,11.344941695556255,0)" xlink:href="#ay"/><use transform="matrix(0.007583517176173967,0,0,0.007583517176173967,20.657500787897884,0)" xlink:href="#au"/><use transform="matrix(0.007583517176173967,0,0,0.007583517176173967,29.833556571068385,0)" xlink:href="#aq"/><use transform="matrix(0.007583517176173967,0,0,0.007583517176173967,34.762842735581465,0)" xlink:href="#ac"/><use transform="matrix(0.007583517176173967,0,0,0.007583517176173967,43.81756224393318,0)" xlink:href="#au"/><use transform="matrix(0.007583517176173967,0,0,0.007583517176173967,52.99361802710368,0)" xlink:href="#aq"/></g><g id="M"><use transform="matrix(0.007583517176173967,0,0,0.007583517176173967,0,0)" xlink:href="#aE"/><use transform="matrix(0.007583517176173967,0,0,0.007583517176173967,9.767570122912069,0)" xlink:href="#ac"/><use transform="matrix(0.007583517176173967,0,0,0.007583517176173967,18.822289631263786,0)" xlink:href="#aw"/><use transform="matrix(0.007583517176173967,0,0,0.007583517176173967,22.583714150646074,0)" xlink:href="#ah"/><use transform="matrix(0.007583517176173967,0,0,0.007583517176173967,31.304758903246135,0)" xlink:href="#aq"/><use transform="matrix(0.007583517176173967,0,0,0.007583517176173967,36.38571541128269,0)" xlink:href="#af"/><use transform="matrix(0.007583517176173967,0,0,0.007583517176173967,40.14713993066498,0)" xlink:href="#ay"/><use transform="matrix(0.007583517176173967,0,0,0.007583517176173967,49.45969902300661,0)" xlink:href="#au"/><use transform="matrix(0.007583517176173967,0,0,0.007583517176173967,58.63575480617711,0)" xlink:href="#ab"/><use transform="matrix(0.007583517176173967,0,0,0.007583517176173967,66.83353687362117,0)" xlink:href="#aB"/><use transform="matrix(0.007583517176173967,0,0,0.007583517176173967,76.01717617396784,0)" xlink:href="#af"/><use transform="matrix(0.007583517176173967,0,0,0.007583517176173967,79.77860069335013,0)" xlink:href="#ae"/></g><g id="N"><use transform="matrix(0.007583517176173967,0,0,0.007583517176173967,0,0)" xlink:href="#as"/><use transform="matrix(0.007583517176173967,0,0,0.007583517176173967,11.208438386385122,0)" xlink:href="#ah"/><use transform="matrix(0.007583517176173967,0,0,0.007583517176173967,19.929483138985184,0)" xlink:href="#aq"/><use transform="matrix(0.007583517176173967,0,0,0.007583517176173967,25.086274818783483,0)" xlink:href="#ah"/></g><path d="M545 20c-263 0-445-160-445-446v-80h190v80c0 182 102 279 255 279 152 0 254-97 254-279v-1064h190v1064c0 286-181 446-444 446" id="aR"/><path d="M692-1560L212 224H46l480-1784h166" id="aS"/><path d="M158 0v-1490h180v865h22l478-493h223L593-638 1096 0H865L456-523 338-412V0H158" id="aT"/><g id="O"><use transform="matrix(0.007583517176173967,0,0,0.007583517176173967,0,0)" xlink:href="#aR"/><use transform="matrix(0.007583517176173967,0,0,0.007583517176173967,8.865131578947366,0)" xlink:href="#ay"/><use transform="matrix(0.007583517176173967,0,0,0.007583517176173967,18.177690671289,0)" xlink:href="#af"/><use transform="matrix(0.007583517176173967,0,0,0.007583517176173967,21.939115190671284,0)" xlink:href="#au"/><use transform="matrix(0.007583517176173967,0,0,0.007583517176173967,31.115170973841785,0)" xlink:href="#aS"/><use transform="matrix(0.007583517176173967,0,0,0.007583517176173967,36.711806649858175,0)" xlink:href="#aF"/><use transform="matrix(0.007583517176173967,0,0,0.007583517176173967,45.49351953986763,0)" xlink:href="#af"/><use transform="matrix(0.007583517176173967,0,0,0.007583517176173967,49.254944059249915,0)" xlink:href="#au"/><use transform="matrix(0.007583517176173967,0,0,0.007583517176173967,58.43099984242041,0)" xlink:href="#aT"/></g><g id="P"><use transform="matrix(0.007583517176173967,0,0,0.007583517176173967,0,0)" xlink:href="#aJ"/><use transform="matrix(0.007583517176173967,0,0,0.007583517176173967,8.887882130475889,0)" xlink:href="#ah"/><use transform="matrix(0.007583517176173967,0,0,0.007583517176173967,17.60892688307595,0)" xlink:href="#an"/><use transform="matrix(0.007583517176173967,0,0,0.007583517176173967,27.118657421998105,0)" xlink:href="#aw"/><use transform="matrix(0.007583517176173967,0,0,0.007583517176173967,30.880081941380393,0)" xlink:href="#ac"/><use transform="matrix(0.007583517176173967,0,0,0.007583517176173967,39.934801449732106,0)" xlink:href="#ab"/></g><g id="Q"><use transform="matrix(0.007583517176173967,0,0,0.007583517176173967,0,0)" xlink:href="#aF"/><use transform="matrix(0.007583517176173967,0,0,0.007583517176173967,8.781712890009453,0)" xlink:href="#ay"/><use transform="matrix(0.007583517176173967,0,0,0.007583517176173967,18.094271982351085,0)" xlink:href="#ay"/><use transform="matrix(0.007583517176173967,0,0,0.007583517176173967,27.406831074692715,0)" xlink:href="#aT"/><use transform="matrix(0.007583517176173967,0,0,0.007583517176173967,35.93070438071226,0)" xlink:href="#at"/><use transform="matrix(0.007583517176173967,0,0,0.007583517176173967,45.11434368105893,0)" xlink:href="#ae"/><use transform="matrix(0.007583517176173967,0,0,0.007583517176173967,54.62407421998108,0)" xlink:href="#aS"/><use transform="matrix(0.007583517176173967,0,0,0.007583517176173967,60.220709895997466,0)" xlink:href="#aE"/><use transform="matrix(0.007583517176173967,0,0,0.007583517176173967,69.98828001890953,0)" xlink:href="#ac"/><use transform="matrix(0.007583517176173967,0,0,0.007583517176173967,79.04299952726126,0)" xlink:href="#aD"/><use transform="matrix(0.007583517176173967,0,0,0.007583517176173967,84.33629451623068,0)" xlink:href="#ac"/><use transform="matrix(0.007583517176173967,0,0,0.007583517176173967,93.3910140245824,0)" xlink:href="#ad"/><use transform="matrix(0.007583517176173967,0,0,0.007583517176173967,98.98006618342261,0)" xlink:href="#ac"/><use transform="matrix(0.007583517176173967,0,0,0.007583517176173967,108.03478569177433,0)" xlink:href="#au"/><use transform="matrix(0.007583517176173967,0,0,0.007583517176173967,117.21084147494483,0)" xlink:href="#ap"/><use transform="matrix(0.007583517176173967,0,0,0.007583517176173967,126.08355657106837,0)" xlink:href="#ac"/></g><path d="M135 0v-1490h468l242 684c30 94 76 293 111 455 34-161 80-360 110-455l238-684h470V0h-307c0-447-3-765 11-1227-122 503-246 788-395 1227H826C676-435 552-717 427-1215c15 453 11 775 11 1215H135" id="aU"/><path d="M128 0v-1118h278l12 217c60-163 185-234 319-234 143 0 236 81 288 251 63-172 205-251 359-251 205 0 357 138 357 381V0h-301v-697c0-126-76-187-177-187-114 0-184 79-184 196V0H789v-705c0-109-72-179-174-179-106 0-187 74-187 208V0H128" id="aV"/><g id="R"><use transform="matrix(0.01953125,0,0,0.01953125,0,0)" xlink:href="#aU"/><use transform="matrix(0.01953125,0,0,0.01953125,37.265625,0)" xlink:href="#aP"/><use transform="matrix(0.01953125,0,0,0.01953125,61.09375,0)" xlink:href="#aV"/><use transform="matrix(0.01953125,0,0,0.01953125,97.59765625,0)" xlink:href="#aP"/></g><path d="M571 0L49-1490h339c138 427 271 775 384 1244 111-471 237-815 371-1244h337L970 0H571" id="aW"/><path d="M440 22C227 22 68-92 68-313c0-250 202-322 422-343 195-21 271-24 271-105 0-95-63-149-175-149-116 0-187 57-211 129l-275-46c57-194 237-305 487-305 240 0 474 108 474 379V0H777v-155h-10C713-51 605 22 440 22zm85-211c140 0 238-93 238-211v-121c-37 26-156 42-222 51-111 16-185 59-185 149 0 87 70 132 169 132" id="aX"/><path d="M513 14c-232 0-385-159-385-421v-711h300v659c0 139 76 222 202 222 127 0 217-86 217-234v-647h301V0H864l-4-232C797-74 683 14 513 14" id="aY"/><path d="M683-1118v229H474v562c0 71 29 104 102 104 23 0 73-7 95-13l43 225C647 9 580 16 520 16 296 16 174-96 174-301v-588H20v-229h154v-266h300v266h209" id="aZ"/><g id="S"><use transform="matrix(0.01953125,0,0,0.01953125,0,0)" xlink:href="#aW"/><use transform="matrix(0.01953125,0,0,0.01953125,27.5,0)" xlink:href="#aX"/><use transform="matrix(0.01953125,0,0,0.01953125,50.72265625,0)" xlink:href="#aY"/><use transform="matrix(0.01953125,0,0,0.01953125,75.625,0)" xlink:href="#aM"/><use transform="matrix(0.01953125,0,0,0.01953125,87.05078125,0)" xlink:href="#aZ"/></g><path d="M135 0v-1490h997v253H440v360h640v249H440v375h694V0H135" id="ba"/><path d="M135 0v-1490h581c339 0 533 192 533 485 0 204-94 351-264 424L1302 0H964L680-532H440V0H135zm305-779h220c186 0 274-77 274-226 0-150-88-233-275-233H440v459" id="bb"/><path d="M659 0H135v-1490h529c448 0 721 280 721 744 0 466-273 746-726 746zM440-263h204c287 0 437-148 437-483 0-333-150-481-435-481H440v964" id="bc"/><g id="T"><use transform="matrix(0.01953125,0,0,0.01953125,0,0)" xlink:href="#ba"/><use transform="matrix(0.01953125,0,0,0.01953125,24.296875,0)" xlink:href="#bb"/><use transform="matrix(0.01953125,0,0,0.01953125,50.56640625,0)" xlink:href="#bc"/></g><path d="M657 26c-323 0-524-166-541-416h195c15 169 171 246 346 246 202 0 356-106 356-265 5-203-294-238-475-293-239-73-380-191-380-389 0-252 224-419 512-419 294 0 499 171 508 396H992c-17-145-151-228-328-228-193 0-321 102-321 242 0 156 175 211 284 241l149 41c160 44 422 134 422 412 0 244-197 432-541 432" id="bd"/><g id="U"><use transform="matrix(0.010850694444444444,0,0,0.010850694444444444,0,0)" xlink:href="#bd"/><use transform="matrix(0.010850694444444444,0,0,0.010850694444444444,14.2578125,0)" xlink:href="#aB"/><use transform="matrix(0.010850694444444444,0,0,0.010850694444444444,27.39800347222222,0)" xlink:href="#ah"/><use transform="matrix(0.010850694444444444,0,0,0.010850694444444444,39.87630208333333,0)" xlink:href="#az"/><use transform="matrix(0.010850694444444444,0,0,0.010850694444444444,58.06206597222221,0)" xlink:href="#au"/></g><g id="V"><use transform="matrix(0.010850694444444444,0,0,0.010850694444444444,0,0)" xlink:href="#aA"/><use transform="matrix(0.010850694444444444,0,0,0.010850694444444444,16.514756944444443,0)" xlink:href="#ah"/><use transform="matrix(0.010850694444444444,0,0,0.010850694444444444,28.993055555555554,0)" xlink:href="#au"/><use transform="matrix(0.010850694444444444,0,0,0.010850694444444444,42.12239583333333,0)" xlink:href="#aT"/></g><path d="M419-1970V480H262v-2450h157" id="be"/><use transform="matrix(0.010850694444444444,0,0,0.010850694444444444,0,0)" xlink:href="#be" id="W"/><g id="X"><use transform="matrix(0.010850694444444444,0,0,0.010850694444444444,0,0)" xlink:href="#ax"/><use transform="matrix(0.010850694444444444,0,0,0.010850694444444444,20.07378472222222,0)" xlink:href="#ah"/><use transform="matrix(0.010850694444444444,0,0,0.010850694444444444,32.2265625,0)" xlink:href="#ai"/></g><path d="M653-1490V0H466v-1314h-10L96-1047v-204l324-239h233" id="bf"/><path d="M635 20c-292 0-500-160-510-396h192c11 142 145 229 315 229 187 0 323-105 323-260 0-161-125-274-346-274H488v-165h121c174 0 294-100 294-254 0-148-104-245-266-245-152 0-291 85-297 230H157c8-234 222-395 484-395 278 0 448 188 448 400 0 168-95 291-247 336v12c190 31 301 169 301 357 0 244-216 425-508 425" id="bg"/><path d="M128 359l88-567h206L266 359H128" id="bh"/><g id="Y"><use transform="matrix(0.010850694444444444,0,0,0.010850694444444444,0,0)" xlink:href="#bf"/><use transform="matrix(0.010850694444444444,0,0,0.010850694444444444,9.038628472222221,0)" xlink:href="#bg"/><use transform="matrix(0.010850694444444444,0,0,0.010850694444444444,22.265625,0)" xlink:href="#bh"/></g><path d="M154 0v-137l495-537c165-179 249-281 249-418 0-156-121-253-280-253-170 0-278 110-278 278H158c0-264 200-443 465-443 266 0 455 183 455 416 0 161-73 288-336 568L416-179v12h687V0H154" id="bi"/><path d="M646 20c-332 0-524-278-524-764 0-483 194-766 524-766s524 283 524 766c0 485-191 764-524 764zm0-166c218 0 341-220 341-598 0-380-123-601-341-601s-341 222-341 601c0 378 123 598 341 598" id="bj"/><path d="M626 20c-262 0-458-168-468-396h184c12 133 134 229 284 229 180 0 311-137 311-326 0-192-136-335-323-335-92 0-196 33-255 78l-178-22 88-738h784v167H429l-51 435h8c61-51 160-87 263-87 273 0 474 211 474 499 0 286-210 496-497 496" id="bk"/><g id="Z"><use transform="matrix(0.010850694444444444,0,0,0.010850694444444444,0,0)" xlink:href="#bi"/><use transform="matrix(0.010850694444444444,0,0,0.010850694444444444,13.55251736111111,0)" xlink:href="#bj"/><use transform="matrix(0.010850694444444444,0,0,0.010850694444444444,27.571614583333332,0)" xlink:href="#bi"/><use transform="matrix(0.010850694444444444,0,0,0.010850694444444444,41.12413194444444,0)" xlink:href="#bk"/></g></defs></g></svg>